<?xml version="1.0" standalone="no"?>
<!DOCTYPE svg PUBLIC "-//W3C//DTD SVG 20010904//EN"
 "http://www.w3.org/TR/2001/REC-SVG-20010904/DTD/svg10.dtd">
<svg version="1.0" xmlns="http://www.w3.org/2000/svg"
 width="1280.000000pt" height="1056.000000pt" viewBox="0 0 1280.000000 1056.000000"
 preserveAspectRatio="xMidYMid meet">
<metadata>
Created by potrace 1.15, written by Peter Selinger 2001-2017
</metadata>
<g transform="translate(0.000000,1056.000000) scale(0.100000,-0.100000)"
fill="#000000" stroke="none">
<path d="M6555 10550 c-124 -13 -226 -37 -360 -85 -174 -62 -351 -111 -490
-136 -106 -19 -142 -21 -315 -15 -107 3 -240 10 -295 15 -131 13 -558 13 -710
1 -210 -17 -333 -40 -634 -116 -346 -88 -410 -108 -556 -182 -155 -77 -260
-143 -447 -280 -90 -66 -194 -139 -233 -162 -189 -116 -372 -162 -842 -215
-312 -34 -419 -62 -615 -160 -206 -103 -501 -307 -664 -459 -135 -125 -162
-190 -194 -472 -28 -242 -57 -424 -125 -759 -63 -313 -80 -438 -73 -536 7 -91
24 -114 117 -160 40 -19 77 -42 82 -50 12 -19 11 -96 -3 -346 -14 -246 -3
-408 36 -538 121 -402 364 -728 646 -867 93 -46 142 -57 250 -58 47 0 140 -5
207 -10 116 -9 124 -11 170 -44 60 -42 323 -182 635 -336 570 -282 1093 -440
1458 -440 110 0 193 14 310 51 84 28 105 30 180 26 108 -6 202 -39 460 -162
289 -137 402 -175 585 -196 129 -14 164 -4 288 89 125 93 166 117 176 106 4
-5 38 -48 75 -96 80 -104 138 -157 226 -206 138 -77 325 -125 635 -162 331
-40 372 -51 432 -113 74 -76 121 -192 173 -433 71 -328 174 -544 345 -723 142
-149 316 -247 540 -305 111 -28 508 -114 670 -145 88 -17 175 -33 193 -37 50
-10 68 -41 75 -131 16 -193 107 -387 257 -546 86 -92 160 -143 311 -216 96
-46 135 -70 162 -101 48 -57 139 -228 252 -475 125 -274 154 -331 176 -351 18
-16 20 -15 40 31 30 68 69 266 69 352 0 40 -7 94 -16 120 -31 95 -112 249
-162 312 -29 35 -52 68 -52 73 0 5 15 15 33 23 35 14 25 12 447 90 350 65 372
70 368 93 -4 25 -188 113 -293 141 -53 14 -132 26 -191 29 -90 4 -121 0 -285
-34 -164 -34 -200 -39 -329 -39 -164 0 -218 12 -317 71 -105 64 -196 171 -272
322 -41 82 -67 180 -51 196 19 19 240 23 700 13 483 -10 760 -5 865 17 103 21
278 81 359 124 80 41 169 126 357 337 170 192 401 395 516 454 78 39 180 16
220 -50 30 -48 57 -188 57 -295 1 -84 -1 -95 -36 -165 -49 -98 -110 -173 -353
-429 -325 -344 -341 -367 -523 -725 -116 -230 -132 -255 -192 -315 -36 -36
-149 -122 -252 -193 -228 -157 -338 -248 -338 -281 0 -42 39 -46 155 -16 109
28 281 98 482 196 224 109 257 140 341 315 32 68 75 167 96 221 60 157 128
248 435 583 300 327 398 452 467 598 60 126 67 237 25 360 -51 148 -127 259
-202 298 -21 10 -75 28 -120 39 -45 10 -83 21 -85 23 -3 2 37 30 88 63 107 67
244 198 308 293 75 112 107 195 140 368 17 87 63 304 102 483 68 308 71 332
72 455 0 98 -6 156 -23 235 -28 132 -70 254 -107 315 -66 106 -63 93 -27 123
56 47 55 72 -17 607 -72 537 -109 908 -135 1370 -25 437 -45 536 -147 721 -63
116 -93 152 -165 200 -117 77 -283 140 -632 239 -513 146 -776 253 -841 345
-37 52 -69 164 -106 370 -77 435 -117 513 -357 693 -321 242 -445 264 -1732
312 l-170 7 -317 134 c-494 209 -659 269 -825 300 -102 19 -510 28 -638 14z
m1354 -540 c244 -103 382 -137 605 -151 252 -15 460 -50 859 -145 126 -30 270
-61 320 -68 165 -25 415 -130 506 -212 61 -54 123 -177 207 -404 115 -314 223
-499 384 -660 118 -118 234 -200 401 -285 160 -82 323 -147 538 -215 149 -47
167 -55 206 -94 77 -77 116 -231 160 -626 45 -401 61 -451 276 -853 127 -236
141 -272 142 -367 1 -95 -12 -134 -83 -245 -32 -49 -71 -120 -88 -158 -17 -37
-38 -70 -47 -73 -8 -4 -71 19 -140 50 -68 31 -245 104 -392 162 -610 241 -771
352 -908 624 -53 106 -90 211 -155 437 -28 98 -58 203 -67 233 -22 79 -99 255
-138 320 -135 222 -539 404 -1035 465 -249 30 -289 37 -321 53 -28 15 -34 26
-54 102 -12 47 -55 184 -94 305 l-73 219 29 27 c61 54 215 105 598 198 206 50
288 80 305 112 25 45 -69 77 -270 89 -149 9 -209 17 -365 45 -196 36 -285 -4
-404 -182 -23 -35 -44 -63 -47 -63 -3 0 -50 35 -105 78 -234 184 -407 247
-714 259 -243 9 -418 -21 -591 -102 -121 -56 -208 -113 -390 -256 -83 -64
-193 -145 -245 -179 -113 -74 -343 -188 -534 -265 -209 -84 -288 -129 -371
-210 -82 -81 -130 -162 -173 -290 -83 -251 -63 -505 66 -855 19 -52 95 -221
168 -375 207 -437 259 -609 258 -855 -1 -302 -48 -388 -641 -1162 l-173 -228
-114 0 c-117 0 -230 17 -350 52 -71 21 -544 205 -557 217 -4 3 11 47 33 96
149 330 215 586 234 910 8 121 -7 314 -29 385 -62 205 -196 445 -314 567 -68
69 -82 103 -108 262 -65 406 -19 635 185 911 85 116 369 394 501 492 339 251
711 439 1180 595 266 88 340 125 509 255 273 211 382 271 548 302 190 36 329
39 1451 33 l1093 -5 119 -65 c188 -104 322 -213 400 -328 89 -130 91 -171 15
-458 -35 -133 -33 -236 8 -325 34 -74 143 -184 250 -252 248 -157 289 -186
332 -242 71 -90 98 -181 130 -437 36 -288 68 -398 120 -411 36 -9 77 26 131
112 172 275 162 621 -22 836 -97 112 -267 249 -512 412 -98 66 -140 101 -154
126 -24 46 -23 132 2 336 31 247 29 267 -46 417 -85 172 -213 321 -355 414
-155 101 -269 118 -738 110 -293 -5 -470 -15 -1029 -60 l-154 -13 -125 84
c-373 249 -555 336 -790 377 -191 33 -304 16 -563 -85 -261 -102 -273 -104
-540 -105 -221 0 -227 1 -303 28 -123 43 -252 58 -507 59 -241 0 -388 -14
-605 -57 -262 -53 -422 -115 -636 -249 -86 -54 -157 -76 -246 -76 -104 0 -263
-21 -358 -46 -49 -14 -151 -40 -225 -60 -224 -59 -273 -77 -605 -226 -496
-224 -746 -372 -1103 -655 l-142 -113 0 -523 -1 -522 -82 -55 c-225 -149 -317
-306 -317 -542 l0 -68 -152 97 c-275 174 -361 248 -392 340 -30 86 -20 160 64
513 61 255 78 374 89 617 8 181 9 194 35 237 55 93 211 192 498 314 392 166
859 347 1023 397 153 47 420 191 698 377 275 184 421 265 678 373 170 72 551
199 649 217 100 17 708 18 920 0 176 -15 363 -36 495 -57 368 -56 478 -48 830
65 309 99 460 124 880 148 l130 8 206 -103 c114 -56 261 -125 328 -153z
m-2439 -460 c69 -5 197 -20 286 -34 292 -46 383 -49 777 -27 661 37 981 38
776 2 -121 -21 -280 -74 -529 -174 -272 -110 -468 -178 -914 -318 -548 -172
-599 -191 -752 -283 -70 -42 -99 -45 -134 -11 -18 17 -48 29 -102 39 -164 31
-372 175 -485 335 -65 92 -125 158 -191 209 -31 24 -61 47 -66 52 -12 12 131
82 232 114 255 80 741 123 1102 96z m-1550 -456 c92 -43 166 -107 400 -345
133 -134 221 -215 250 -230 35 -18 67 -24 140 -27 l96 -4 -189 -187 c-320
-315 -465 -502 -665 -856 -50 -88 -78 -106 -198 -124 -119 -18 -164 -4 -434
128 -206 102 -295 131 -420 138 -78 5 -109 2 -175 -16 -99 -28 -206 -83 -245
-128 -26 -29 -30 -41 -30 -93 0 -51 4 -64 28 -91 36 -41 84 -49 192 -32 47 7
114 17 150 23 151 23 503 5 595 -30 79 -30 190 -51 300 -57 l121 -6 -18 -111
c-58 -377 -22 -532 167 -721 49 -50 138 -128 197 -173 186 -145 229 -222 229
-411 1 -414 -177 -948 -385 -1156 -131 -131 -344 -177 -667 -145 -349 36 -524
99 -1210 442 -415 207 -441 224 -479 325 -23 61 -51 223 -70 398 -22 212 -45
278 -178 512 -180 317 -252 483 -252 578 0 41 8 68 36 122 40 78 130 184 202
236 49 37 223 140 227 135 1 -2 -3 -91 -8 -198 -11 -208 -3 -338 28 -437 25
-85 107 -195 209 -284 166 -146 486 -346 582 -364 62 -11 129 -63 397 -307 75
-68 162 -139 193 -158 51 -30 68 -35 134 -38 137 -5 176 38 168 188 -6 108
-49 192 -143 285 -39 38 -97 85 -128 104 -106 63 -512 216 -792 297 -139 41
-205 74 -301 150 -90 71 -147 141 -175 212 -18 47 -23 83 -27 200 -5 169 8
290 50 456 64 256 181 495 306 622 77 80 287 201 418 240 71 22 208 24 944 10
368 -6 495 -6 528 3 41 11 46 17 74 78 42 92 45 121 18 174 -48 95 -104 129
-225 136 -118 8 -230 -16 -508 -106 -264 -86 -376 -112 -557 -131 -405 -42
-601 -118 -785 -304 -89 -91 -155 -188 -251 -368 -129 -241 -154 -268 -255
-268 -85 0 -84 -5 -84 259 0 204 3 234 23 304 56 196 157 316 411 489 343 234
781 453 1146 574 298 98 440 124 670 121 156 -2 162 -3 225 -33z m4120 -339
c201 -33 282 -66 356 -148 95 -104 171 -257 207 -418 9 -36 52 -153 97 -259
66 -153 80 -194 69 -201 -16 -10 -125 -44 -269 -84 -226 -62 -407 -171 -596
-360 -236 -234 -254 -292 -254 -826 0 -343 10 -471 46 -572 53 -148 194 -377
285 -462 100 -94 133 -102 814 -200 657 -95 817 -127 1074 -217 167 -58 324
-160 394 -256 89 -122 121 -229 120 -412 -1 -618 -451 -1204 -1023 -1331 -102
-22 -300 -25 -375 -5 -160 42 -361 205 -539 436 -101 131 -206 237 -272 272
-107 58 -245 72 -429 44 -188 -28 -208 -77 -93 -231 68 -91 618 -642 727 -728
179 -141 349 -197 596 -198 200 -1 328 36 530 152 297 171 674 513 842 764 36
54 164 272 235 401 81 148 120 408 87 590 -48 268 -435 641 -749 723 -550 143
-824 206 -1235 281 -256 47 -443 97 -518 137 -93 51 -137 124 -177 297 -41
178 -54 304 -55 531 0 354 32 456 201 634 303 318 577 407 1105 356 426 -41
640 -94 897 -224 196 -99 231 -155 273 -438 34 -236 93 -420 200 -634 89 -178
166 -265 384 -429 203 -153 341 -225 602 -314 342 -118 630 -268 734 -384 46
-51 159 -245 159 -273 0 -9 -16 -94 -35 -190 -20 -96 -67 -338 -106 -539 -42
-219 -78 -382 -91 -408 -31 -66 -125 -154 -463 -436 -543 -452 -772 -667 -845
-791 -76 -130 -319 -275 -505 -303 -148 -22 -432 -35 -669 -29 -202 4 -284 11
-501 42 -886 123 -1232 220 -1497 420 -117 88 -177 171 -368 506 -181 318
-271 459 -345 543 l-54 60 43 46 c76 81 161 244 251 481 70 183 76 221 83 501
4 135 11 250 15 255 5 4 24 -13 44 -37 165 -206 533 -470 1012 -724 203 -109
330 -182 446 -257 207 -135 258 -159 334 -159 65 0 109 32 151 112 27 51 25
108 -6 173 -44 95 -98 130 -569 372 -540 278 -654 351 -1091 699 -172 138
-284 219 -344 249 -65 33 -123 138 -230 420 -160 421 -234 772 -234 1105 0
263 30 415 112 575 60 116 110 156 343 275 406 208 448 258 349 413 -40 64
-100 92 -173 83 -113 -15 -340 -116 -489 -217 -115 -78 -277 -238 -347 -342
-100 -149 -161 -314 -161 -437 0 -167 267 -1252 419 -1703 71 -209 95 -369
111 -742 15 -341 11 -360 -132 -722 -65 -166 -83 -204 -101 -208 -179 -42
-278 -57 -409 -62 -275 -11 -332 14 -653 280 -66 55 -126 106 -134 113 -13 12
20 49 220 251 311 316 367 390 424 573 75 240 73 321 -15 677 -54 218 -131
445 -260 769 -124 312 -164 430 -191 567 -35 179 -22 309 51 522 92 267 143
359 218 391 20 8 93 26 162 40 102 21 137 32 192 65 37 22 89 46 117 54 67 17
126 52 356 205 385 257 695 448 748 460 56 14 269 10 367 -5z m-7365 -2154
c138 -62 260 -116 273 -121 14 -6 22 -18 22 -34 0 -36 28 -104 145 -346 114
-235 182 -404 219 -545 42 -159 99 -425 93 -431 -14 -15 -65 13 -233 125 -472
313 -520 381 -624 881 -60 288 -97 426 -135 509 -19 40 -35 75 -35 78 0 7 -12
12 275 -116z"/>
<path d="M5067 7602 c-32 -35 -42 -127 -41 -382 1 -264 17 -442 58 -648 44
-215 51 -295 51 -577 0 -296 -8 -368 -57 -524 -69 -221 -37 -393 78 -431 101
-34 251 86 327 260 l32 75 0 175 c0 185 -12 271 -61 465 -36 143 -49 180 -127
375 -114 285 -118 306 -142 710 -18 319 -31 440 -50 486 -16 38 -42 45 -68 16z"/>
<path d="M8970 6905 c-8 -2 -32 -6 -52 -10 -80 -13 -131 -98 -131 -216 0 -103
53 -154 190 -184 145 -30 289 -95 456 -204 189 -124 306 -217 667 -531 430
-373 543 -460 775 -590 344 -194 505 -348 635 -609 37 -73 52 -116 130 -367
38 -123 60 -161 105 -180 44 -18 156 -18 200 0 63 27 102 118 84 195 -31 128
-164 343 -299 481 -124 125 -544 441 -695 521 -41 21 -114 67 -162 100 -48 34
-108 70 -133 81 -111 47 -374 363 -596 715 -202 322 -289 433 -425 548 -208
175 -365 238 -626 249 -60 3 -115 3 -123 1z"/>
</g>
</svg>
